<svg width="33" height="37" viewBox="0 0 33 37" fill="none" xmlns="http://www.w3.org/2000/svg">
<path d="M26.4352 22.3169C25.3611 21.5529 24.272 20.8039 23.1753 20.0777C25.5654 16.1288 28.5 12.77 30.0128 8.27644C30.633 6.42304 30.6935 4.28217 29.7178 2.58763C28.7194 0.85526 26.6394 -0.188698 24.6502 0.0306845C22.2147 0.303021 12.6089 12.5431 13.2896 13.2466C12.3442 12.2632 11.4895 11.1889 10.7331 10.0239C6.76981 3.92662 -3.05531 9.60787 0.938273 15.7581C2.58714 18.2924 4.51586 20.5467 6.66392 22.5136C6.19498 22.09 1.57362 30.9788 1.80052 32.5447C2.52663 37.5602 9.15234 38.468 11.9131 34.6023C12.1778 34.2392 15.71 28.9438 15.8537 29.027C18.5917 30.6232 21.5642 31.826 24.6426 32.5976C26.4503 33.0515 28.4017 33.339 30.1565 32.7036C31.9112 32.0681 33.3407 30.2147 32.9247 28.3991C32.6298 27.1131 31.5406 26.175 30.4968 25.3656C29.1656 24.3141 27.8118 23.3004 26.4352 22.3169Z" fill="#DC2A57"/>
</svg>
